<svg xmlns="http://www.w3.org/2000/svg" viewBox="0 0 442.11 273.33"><defs><style>.cls-1{fill:#fff;}</style></defs><title>122222211Ativo 9</title><g id="Camada_2" data-name="Camada 2"><g id="Camada_1-2" data-name="Camada 1"><path class="cls-1" d="M216.47,202.29c-17.53,0-35.05.23-52.57,0-18.26-.29-29.37-11.09-29.58-28.12s10.84-28.71,28.88-28.93q53.22-.63,106.45,0c18.05.21,29,11.83,28.85,28.87S287.25,202,269,202.23C251.52,202.48,234,202.28,216.47,202.29Zm.08-45.41c-17.52,0-35,.05-52.55,0-11-.05-17.46,5.1-18.23,16.21-.74,10.52,6.08,17.75,18,17.87q52.54.52,105.1,0c11.74-.1,18.93-7.44,18.27-17.75-.76-11.87-7.89-16.59-19.38-16.43C250.71,157,233.63,156.85,216.55,156.88Z"/><path class="cls-1" d="M399.41.24q-178.8-.49-357.6,0C16.13.3.66,16.93.1,42.71-.3,60.9-.3,60.94,17.78,61,40,61,62.2,61,84.65,61V96.47c-28.25,4.07-32.23,7.77-38.54,35.25-.69,3-1.44,6-1.92,9Q34,204.74,24,268.78l1.57.68a5.44,5.44,0,0,0,4.82,2.87l385.5,1c-.07-12.52-.68-87.38-12-134-2.74-11.26-7-24.7-19.15-33.82-10.05-7.57-21.35-9-28-9.3V61h14.71c19.72,0,39.46.42,59.15-.34,3.76-.15,10-4.44,10.59-7.68C446.68,24,428.22.32,399.41.24ZM357.22,109.3c2.63,0,10.35-.72,18.07,3.42,7.49,4,13.9,11.9,18.56,27.61,11.21,37.84,9.54,112,9.31,121H37.44a13.27,13.27,0,0,0,.66-2.43c7.17-43.6,13.86-87.29,20.71-131,2.11-13.49,9.67-18.85,23.63-18.79C174,109.53,265.63,109.29,357.22,109.3ZM98,97.59V61.72c4.66-.27,8.51-.68,12.36-.69,73.55,0,147.11.2,220.67-.27,11.05-.07,14.26,3.24,13.83,14.06-1.07,26.91,3.17,22.62-23.26,22.7-69.18.21-138.36.07-207.54.07ZM428.87,49H12.13c-1.72-25.19,8.63-37.09,32.14-37.11q176.76-.21,353.52,0C420.87,11.89,431.52,24.74,428.87,49Z"/></g></g></svg>