<svg xmlns="http://www.w3.org/2000/svg" viewBox="0 0 404.08 384.85"><defs><style>.cls-1{fill:#fff;}</style></defs><title>1222222Ativo 7</title><g id="Camada_2" data-name="Camada 2"><g id="Camada_1-2" data-name="Camada 1"><path class="cls-1" d="M.06,177.25V74.15c0-7,.88-8.22,7.51-10.43q94.76-31.56,189.57-63a17,17,0,0,1,9.93.05q95,31.38,190,63.15c5.87,2,7,3.47,7,9.55q0,103.93.07,207.87c0,4.75-1.73,7.59-6,9.72Q305.46,337.16,213,383.5a10.22,10.22,0,0,1-9.79.2Q104.58,337.22,5.87,291C1.69,289,0,286.21,0,281.6.11,246.82.06,212,.06,177.25ZM390,82.24c-2.21.88-3.48,1.34-4.73,1.88Q302,120.46,218.77,156.77C216,158,215,159.45,215,162.58q.15,99.6.07,199.19v4.66c2.16-1,3.65-1.62,5.08-2.34q83-41.41,165.93-82.77c3.11-1.55,4-3.36,4-6.66q-.14-93.59-.07-187.18ZM14.33,81.93c-.11,2-.22,3.23-.22,4.45q0,94.41-.07,188.84c0,2.89.9,4.4,3.55,5.64Q107.5,323,197.36,365.29c.95.44,2,.71,3.21,1.14.09-1.42.22-2.51.22-3.59q0-100.23.11-200.44c0-3-1.12-4.3-3.78-5.38-18.79-7.6-37.51-15.36-56.27-23.06-1.31-.54-2.68-1-4.56-1.63V138q0,32.1,0,64.19c0,3.7-.72,6.9-4.56,8.45s-6.57-.39-9.09-3.05c-7-7.42-14.14-14.75-21.11-22.21-1.62-1.73-3-2.29-5.39-1.44-4.79,1.73-9.71,3.1-14.59,4.61-8.19,2.53-11.8-.09-11.81-8.61,0-23.75-.05-47.49.06-71.23,0-2.9-.79-4.37-3.59-5.47C54.8,98.71,43.49,93.94,32.14,89.27Zm133.86,39.53c2.23,1,3.32,1.61,4.45,2.08,17.09,7,34.21,14,51.26,21.13a8.92,8.92,0,0,0,7.78,0Q291.81,109.45,372,74.48c1.31-.57,2.57-1.24,4.6-2.23-2-.79-3-1.3-4.16-1.68C356,65.07,339.46,59.67,323,54a12.49,12.49,0,0,0-9.49.39q-68.4,27.85-136.89,55.5ZM27.85,71.86c1.83.91,2.86,1.52,3.95,2,13.9,5.72,27.77,11.52,41.76,17a10.49,10.49,0,0,0,6.93.08q79.25-30.27,158.37-60.81c1.43-.55,2.82-1.2,5.24-2.24-13.58-4.54-25.95-8.8-38.42-12.72a13,13,0,0,0-7.5.05Q129.81,37.75,61.55,60.6C50.59,64.25,39.64,67.92,27.85,71.86ZM97.26,99.71v1c9.54,3.91,19,8,28.64,11.63a9.73,9.73,0,0,0,6.52.07Q212.84,80.12,293.15,47.5c1.05-.43,2-1,3.93-2-9.68-3.23-18.45-6-27.1-9.11a12.09,12.09,0,0,0-9.08.28q-60.57,23.43-121.22,46.7ZM121.68,186c.21-1.7.36-2.35.36-3,0-17.94,0-35.87.06-53.81,0-2.36-.92-3.37-3-4.2-10.74-4.31-21.43-8.77-32.15-13.15a21.27,21.27,0,0,0-2.72-.74v61.75c4.62-1.43,8.87-2.53,13-4.06,4.35-1.62,7.67-.64,10.73,2.76C112.17,176.22,116.63,180.7,121.68,186Z"/></g></g></svg>