<svg xmlns="http://www.w3.org/2000/svg" viewBox="0 0 410.68 410.64"><defs><style>.cls-1{fill:#fff;}</style></defs><title>1222Ativo 6</title><g id="Camada_2" data-name="Camada 2"><g id="Camada_1-2" data-name="Camada 1"><path class="cls-1" d="M410.68,205.55c.1,112.88-91.74,205-204.54,205.09C92.11,410.77,0,319.22,0,205.78,0,91.17,91.6-.06,206.58,0,319.13.06,410.58,92.16,410.68,205.55ZM205.29,399.7c107,0,194.35-86.7,194.37-193C399.69,98.12,313.58,11,206.07,11,98.13,10.88,10.94,97.42,11,204.6,11,312.92,97.48,399.73,205.29,399.7Z"/><path class="cls-1" d="M205.84,370.52c-91.27.12-165.58-73.72-165.74-164.7A165.38,165.38,0,0,1,205.47,40.11c90.68,0,165,74.09,165.07,164.67C370.63,296.09,296.79,370.4,205.84,370.52Zm-1-10.89C290.68,359.47,359.7,290.5,359.62,205,359.54,120,290.13,51,204.79,51,120,51.05,50.87,120.75,51,206,51.15,290.23,120.81,359.78,204.84,359.63Z"/><path class="cls-1" d="M209.89,199.88h54.24c1.8,0,3.94-.6,5.33.17,2.06,1.13,5.22,3.55,5,4.86-.42,2.17-2.89,5-5,5.55-3.6.92-7.61.3-11.44.3-16.7,0-33.41-.14-50.1.07-5,.06-7.33-1.88-8.46-6.64-7.44-31.59-15.06-63.14-22.59-94.71-.88-3.65-1.49-7.6,3.44-8.72,5.27-1.21,6.43,2.88,7.35,6.75Q197.84,150.26,208,193C208.53,195.17,209.18,197.3,209.89,199.88Z"/><path class="cls-1" d="M210.75,81.35c0,4.94.58,10-.23,14.79-.4,2.33-3.37,4.23-5.18,6.33-1.81-2.09-5.08-4.1-5.2-6.28a305.27,305.27,0,0,1,0-31c.11-2.11,3.16-4.08,4.85-6.11,1.93,2,5.16,3.85,5.52,6.12C211.31,70.47,210.75,76,210.75,81.35Z"/><path class="cls-1" d="M81.27,199.88c5.17,0,10.41-.51,15.47.24,2.12.32,3.84,3.31,5.74,5.09-1.84,1.85-3.6,5.21-5.52,5.3-10.77.5-21.58.5-32.34,0-1.92-.09-3.68-3.52-5.52-5.4,2-1.73,3.83-4.64,6-4.94C70.42,199.39,75.88,199.88,81.27,199.88Z"/><path class="cls-1" d="M330.08,210.75c-4.94,0-9.88-.05-14.82,0-3.79.05-6.93-.95-7-5.35s2.91-5.56,6.78-5.54q14.82.06,29.65,0c3.93,0,7.26,1.64,6.55,5.62-.37,2.08-3.92,4.65-6.35,5.06C340.06,211.32,335,210.76,330.08,210.75Z"/><path class="cls-1" d="M199.9,330c0-5.17-.55-10.42.24-15.46.37-2.34,3.32-4.28,5.11-6.4,1.83,2.08,5.13,4.08,5.25,6.25a283,283,0,0,1,0,31c-.12,2.16-3.54,4.12-5.44,6.17-1.72-2-4.59-3.85-4.92-6.06C199.4,340.41,199.91,335.18,199.9,330Z"/><path class="cls-1" d="M135.09,281.52c-1.42,2.11-2.3,4-3.66,5.34-6.75,6.91-13.4,14-20.63,20.36-1.88,1.67-5.73,1.1-8.68,1.56.32-3-.45-6.89,1.16-8.71,6.68-7.56,14-14.64,21.34-21.54,1.44-1.33,4.47-1.76,6.52-1.35C132.61,277.47,133.67,279.85,135.09,281.52Z"/><path class="cls-1" d="M310.41,305.63c-.81,1.08-1.6,3.27-2.9,3.63-1.89.53-4.89.54-6.12-.62-8.09-7.55-16-15.33-23.52-23.42-1.18-1.26-1.17-5.12-.09-6.57s5.29-2.37,6.23-1.49c8.74,8.14,17.08,16.7,25.47,25.21C310,302.92,310,304.06,310.41,305.63Z"/><path class="cls-1" d="M129.26,135.05c-1.91-1.18-3.62-1.85-4.83-3-7.23-7.06-14.61-14-21.29-21.55-1.57-1.77-.64-5.75-.86-8.71,2.8.38,6.5-.24,8.24,1.32,7.5,6.75,14.56,14,21.44,21.4,1.36,1.47,1.91,4.42,1.57,6.48C133.29,132.43,130.92,133.55,129.26,135.05Z"/><path class="cls-1" d="M282,134.39c-4.18-.12-7.38-4.93-4.88-7.68,8-8.81,16.42-17.21,25.06-25.36,1.05-1,5-.21,6.5,1.05,1.14.94,1.56,4.9.6,5.92-8.15,8.65-16.68,17-25.15,25.29C283.58,134.17,282.51,134.22,282,134.39Z"/><path class="cls-1" d="M74.94,146.08c7.3,3.14,14.16,5.82,20.69,9.15,1.21.61,2.07,4.41,1.32,5.73-1,1.69-4.16,3.72-5.63,3.25a135.87,135.87,0,0,1-19.19-7.91c-1.32-.66-2.24-4-1.8-5.72S73.14,147.72,74.94,146.08Z"/><path class="cls-1" d="M151.65,70c1.17,1.11,3.25,2.29,4.12,4.07a98.13,98.13,0,0,1,6.63,16.1c.57,2-1.57,4.83-2.47,7.28-2.4-1-6-1.31-7-3.09a102.18,102.18,0,0,1-7.17-16.59C144.3,73.58,146.35,70.92,151.65,70Z"/><path class="cls-1" d="M340.15,150.82c-1,1.21-2,3.45-3.72,4.31a96.77,96.77,0,0,1-16.19,6.74c-2.08.61-4.91-1.4-7.4-2.22,1-2.44,1.27-6.08,3.06-7.11a110,110,0,0,1,16.73-7.24C336.62,143.84,339.07,145.8,340.15,150.82Z"/><path class="cls-1" d="M165.39,318.19c-3,7.16-5.3,13.5-8.38,19.43-.76,1.48-4.69,2.89-5.95,2.18-1.81-1-3.92-4.43-3.43-6.09a98.29,98.29,0,0,1,7.31-18c.86-1.63,4.54-2.82,6.58-2.44C163.14,313.58,164.24,316.61,165.39,318.19Z"/><path class="cls-1" d="M264.26,74.51c-3.22,7.36-6,14.26-9.36,20.81-.61,1.18-4.58,1.94-5.86,1.12-1.61-1-3.28-4.27-2.79-5.91a112.31,112.31,0,0,1,7.27-18.13c.79-1.55,4.19-2.67,6.19-2.41C261.31,70.19,262.61,72.77,264.26,74.51Z"/><path class="cls-1" d="M341,256.92c-.83,4.84-3.2,7.16-7.63,5.6a120.73,120.73,0,0,1-16.84-7c-1.72-.92-3.14-4.39-2.83-6.41.22-1.44,4-3.79,5.42-3.34a179.06,179.06,0,0,1,19.45,7.7C339.76,254,340.32,255.89,341,256.92Z"/><path class="cls-1" d="M266,334.08c-1.37,1.79-2.41,4.49-4,4.83-1.94.43-5.51-.45-6.27-1.88a130.7,130.7,0,0,1-8-18.62c-.51-1.47,1-4.91,2.43-5.47,1.82-.73,5.79-.24,6.47,1C260.17,320.23,262.84,326.94,266,334.08Z"/><path class="cls-1" d="M98.79,253c-1.26,1.45-2.34,3.62-4.07,4.49a97.05,97.05,0,0,1-16.17,6.77c-2,.59-4.85-1.54-7.31-2.44,1-2.42,1.33-6,3.14-7,5-2.93,10.58-5,16.06-7C94.65,246.1,97.3,248,98.79,253Z"/></g></g></svg>