<svg xmlns="http://www.w3.org/2000/svg" viewBox="0 0 322.7 407.87"><defs><style>.cls-1{fill:#fff;}</style></defs><title>1222222Ativo 8</title><g id="Camada_2" data-name="Camada 2"><g id="Camada_1-2" data-name="Camada 1"><path class="cls-1" d="M118.56,227.46c-5.47-37.87,22.87-61.74,50.06-62.16,26.52-.41,56.76,21.93,51.78,61.91H322.7c-2.14,11.83-3.31,23-6.23,33.7-13.88,50.83-44,88.42-92.09,111-3,1.4-3.83,3.1-3.77,6.2.17,9.84.06,19.68.06,29.8H101.48c0-9.5-.3-18.83.12-28.12.21-4.66-1.45-6.67-5.55-8.68C42.9,345,12.42,302,2.14,244.15c-1-5.29-1.38-10.68-2.14-16.69ZM10,236.49c.2,2.16.26,4,.55,5.78A163.75,163.75,0,0,0,26.22,291.2c16.94,33.2,42.05,57.91,76.2,73.14a22.47,22.47,0,0,0,8.83,1.85q49.86.19,99.73,0a21.9,21.9,0,0,0,8.82-1.89c45.87-21.21,74.73-56.8,88.14-105.19,2-7.27,3.11-14.8,4.72-22.62Zm159-9.05c12.6,0,25.21-.09,37.81.07,3.25,0,4.6-1.12,4.93-4.26,1.87-17.66-4-32.06-18.85-41.9-15-10-31-10.17-46.21-.63s-21.52,24-19.89,41.89c.31,3.4,1.57,5,5.42,4.92C144.54,227.29,156.8,227.44,169.07,227.44Zm42.57,148h-101v23.77h101Z"/><path class="cls-1" d="M187,142.49l90.62-87.34c17.67,17.59,24.71,38.29,18.69,62.17-6.4,25.4-23.33,41.06-48.92,46.74C225.35,168.94,199.9,159.72,187,142.49Zm12.62.07c14.92,15.75,50.37,22.49,74.76-2.81,23.26-24.13,16.44-58.07,2.34-71.53Q238.13,105.38,199.58,142.56Z"/><path class="cls-1" d="M173.39,94.83l7.83,1.47A36.81,36.81,0,0,1,168,118.86c1.24,5,3.1,9.57,3.32,14.18.38,8.09-3.18,14.88-9.34,20.16-16.77,14.37-36.54,18.93-58.08,17.69-12.9-.74-25.07-3.57-34.32-13.39a30.79,30.79,0,0,1-6.21-9.75c-1.79-4.66,1.35-8.11,6.29-7.67a13,13,0,0,1,3.45.87c12.11,4.79,23.06,2.53,33-5.47,6.77-5.43,13.42-11,20.24-16.42s14.35-9.19,23.39-8.8a29.06,29.06,0,0,1,4.57.51c2.44.51,5.55,2.44,7.1,1.54,2.94-1.69,5.31-4.73,7.28-7.64S171.66,98.58,173.39,94.83ZM75.85,151a29.52,29.52,0,0,0,16.4,9.42c16,3.64,32,3,47-3.61a73.91,73.91,0,0,0,18.6-12.2c6.11-5.36,6.33-13.72,2-20-3.92-5.63-10.67-7.42-18.25-4.22a50.94,50.94,0,0,0-10.92,6.45c-6.09,4.63-11.79,9.77-17.77,14.55C102.51,149.74,91,154.32,75.85,151Z"/><path class="cls-1" d="M56.73,135.86A42.08,42.08,0,1,1,99,93.17,42.1,42.1,0,0,1,56.73,135.86Zm-.16-8.81c18.31.11,33.43-14.61,33.6-32.7.18-18.71-15-34.13-33.45-34a33.59,33.59,0,0,0-33.3,33.12A33.25,33.25,0,0,0,56.57,127.05Z"/><path class="cls-1" d="M152.89,0C163,19.24,172.85,37.88,183,57.18L139.58,80.13,109.35,23Zm-3.71,11.84L121.25,26.59l22,41.69,27.93-14.8Z"/><path class="cls-1" d="M39.68,182.11A21.63,21.63,0,0,1,61.18,204a21.89,21.89,0,0,1-21.62,21.41c-11.77.08-21.74-9.9-21.77-21.8A21.57,21.57,0,0,1,39.68,182.11Zm-.2,8.77a12.84,12.84,0,0,0-12.88,13,13.17,13.17,0,0,0,12.63,12.82,13.14,13.14,0,0,0,13.12-12.82A12.79,12.79,0,0,0,39.48,190.88Z"/><path class="cls-1" d="M266.93,185.1a14.38,14.38,0,0,1,14.42,14.17,14.18,14.18,0,0,1-14.41,14.63,14,14,0,0,1-14.36-14.11A14.21,14.21,0,0,1,266.93,185.1Zm1.57,8.64c-5.28.48-7.74,2.74-6.94,6A8.34,8.34,0,0,0,267,205c3.41.59,5.94-2.28,5.31-5.7C271.92,197,269.52,195.13,268.5,193.74Z"/><path class="cls-1" d="M131.61,326.69c-1.22,2.63-2.32,5-3.63,7.86-27.6-14.26-45.1-36.77-58.31-64l8.08-3.33C90,292.36,106.38,313.37,131.61,326.69Z"/><path class="cls-1" d="M165.2,192.75h8.2v10.38h-8.2Z"/><path class="cls-1" d="M201.49,220.4H191.3v-8.1h10.19Z"/><path class="cls-1" d="M237.4,111.88l5.66-5.39c9.42,8.53,18.6,16.84,28.49,25.81l-6.15,4.83Z"/><path class="cls-1" d="M225.58,147.74v-23h8.32v23Z"/><path class="cls-1" d="M281.08,93.9V102H257.9V93.9Z"/><path class="cls-1" d="M56.85,68.17A25.63,25.63,0,1,1,31.06,93.69,25.58,25.58,0,0,1,56.85,68.17Zm-.29,42.5a17,17,0,1,0-16.71-17A16.93,16.93,0,0,0,56.56,110.67Z"/></g></g></svg>