<svg xmlns="http://www.w3.org/2000/svg" viewBox="0 0 403.21 286.09"><defs><style>.cls-1{fill:#fff;}.cls-2{fill:#4d9c40;}.cls-3{fill:#a52619;}</style></defs><title>1222Ativo 1</title><g id="Camada_2" data-name="Camada 2"><g id="Camada_1-2" data-name="Camada 1"><path class="cls-1" d="M228.8,190.28c-.14,6-.56,11-.92,14.38a6.32,6.32,0,0,1-2.56,3.94,6.77,6.77,0,0,1-6.95-.23c-4-2.65-3.82-11.57-3.21-29.28v0a64.58,64.58,0,0,0-.51-11.74c-1.17-5.43-8-8.94-10.94-10.26-.65-.16-11.19-2.61-15.2,0a11.16,11.16,0,0,0-1.38,1.09,10.72,10.72,0,0,0-2.88,5.81c-1,5.41-2.27,24.46-4.62,36.34-.7,3.51-1.59,6.94-4.41,8.35a7.33,7.33,0,0,1-7.89-1.16c-2.39-2.25-2.05-5.87-1.62-10.67.39-4.51,1-11.38,1.71-20.87-6.51,7.16-22.72,23.3-46.09,29.91a74.53,74.53,0,0,1-25.22,3.1c-3.91-.21-13.23-.7-21.39-4.46C52.86,194.37,47.8,164.81,47,159.53c0,0-4.61-30.87,17.06-58.09a84.37,84.37,0,0,1,9.15-9.6c.89-.77,6.31-6.23,12.6-8.84,17.14-7.09,34.27-4.06,50.73,2.43,8.89,3.51,11.66,11.12,9.6,20.37-.92,4.13-1.57,8.35-2.82,12.37a5.18,5.18,0,0,1-3.67,2.83,4.64,4.64,0,0,1-3.75-2.2c-4.29-9.48-10.42-15.45-17.55-18.24C109.19,97,97.5,100.32,93.53,102c-18,7.54-30.28,29-29,50.15.84,14.07,8,32.58,23.95,40.24,11.42,5.46,23.06,3.33,31.43,1.8A73.9,73.9,0,0,0,148.43,182c8.64-5.79,14.31-9.6,18.44-17.06,4.94-8.94,5.34-19.42,5.56-40.71.07-6.3-.06-13.86.56-26.08.75-14.63,1.78-20.63,6.06-23a9.38,9.38,0,0,1,9.87.72c3.69,3,3.2,9.13,3,11.8-.87,11.57-1.8,31.82-3.08,58.4A31.08,31.08,0,0,1,226.68,164C229.26,170.12,229.12,176.84,228.8,190.28Z"/><path class="cls-1" d="M384.69,78.34a2.67,2.67,0,0,1-.35.22c-3.94,2.24-9.19.44-11.63-.39-6.82-2.34-11.53-4-15.86-4.35-1.75-.17-9.16-.86-15,3.13-6.26,4.3-8.61,11.83-9.74,25.4-.37,4.37-.94,12.19-1.54,21.68h19.28a5.81,5.81,0,0,1,0,11.62h-20c-1.39,23.65-2.65,52.28-1.92,65.52a7.81,7.81,0,0,1-.64,3.46c-1,2.31-3.73,4.63-6.46,4.33-3.19-.36-6.18-4.3-5.36-9.12.1-9,.16-16.61.2-22.55.06-8.23.06-14.84,0-20.33,0-7.62-.45-12.13-.15-20.07,0-.43,0-.84.05-1.24H304.1a5.81,5.81,0,1,1,0-11.62h12.32c1.76-24.78.71-27.76,2.85-35.6C321,82.28,323.5,73,331.1,66.16c17.5-15.82,52.71-9.85,56.72,1.39C389.07,71,387.71,76.18,384.69,78.34Z"/><path class="cls-1" d="M253.81,173.62a30.63,30.63,0,0,0,2.13,15.45,17.3,17.3,0,0,0,4.13,6.13,12.92,12.92,0,0,0,7.16,3.66c10,1.72,19.29-.66,28-5.28,2.76-1.45,5.07-3.75,7.59-5.66-1.66,3.22-7.92,14.42-21.3,19.28-14.05,5.11-30,1.16-37.43-6.63a37,37,0,0,1-9.87-19.9,25.52,25.52,0,0,1-.33-6.74,30.65,30.65,0,0,1,3.28-10.53c2.52-4.78,14.38-22.27,35.3-23.55,3.58-.22,22.61-1.39,29.29,11.2,3.81,7.18,3,17.77-2.72,23-4.13,3.74-10.39,3.44-22.74,2.69A146.47,146.47,0,0,1,253.81,173.62Zm1.85-5.07c1.75.54,11.73,3.48,20.28-2.25,4.57-3.06,9.8-9.3,8.14-12.76-2.14-4.49-16.3-5.41-23.61,2.12C256,160.25,255.68,166.36,255.66,168.55Z"/><path class="cls-2" d="M144.49,219.1c33.5-4,59-.61,74.57,1.55,7.47,1,22.21,3.37,22.11,4.5-.07.73-6.35.7-9.61.67-41.89-.31-55.72-.6-66.28,0-12.56.75-27.25,2.41-44.77,9.36-22.47,8.91-44.72,26.58-56.2,25-1.48-.2-5.64-.77-7.3-3.73-1.32-2.35-.47-5.14-.18-6.08,1.85-6.08,15.2-17.56,62.41-27.06C126.91,221.81,134.22,220.33,144.49,219.1Z"/><path class="cls-2" d="M123.22,24a25.93,25.93,0,0,0-3.17-10.16,25,25,0,0,0-3.72-5.07,26.07,26.07,0,0,0-5.78-4.6A30.07,30.07,0,0,0,92.14.32a41.4,41.4,0,0,0-16,5,.81.81,0,0,1-.87,0,25.4,25.4,0,0,0-4.87-2.67C62.78-.64,53.19-.86,44.1,2S27.25,10.51,22.81,17.52A36.49,36.49,0,0,0,17.4,33.33a25.21,25.21,0,0,0,0,4.67.8.8,0,0,1-.45.8A29.15,29.15,0,0,0,.22,61.16c-.69,4.67.15,12.6,3.55,19.4a.8.8,0,0,1-.07.84c-.3.42-.59.85-.86,1.29a18.62,18.62,0,0,0-2.36,12,19,19,0,0,0,4.95,10.51,16.4,16.4,0,0,0,3.38,2.73,16.75,16.75,0,0,0,14.52,1.26,20.07,20.07,0,0,0,3.79-1.84.82.82,0,0,1,.8,0c2.68,1.41,5.43,2.91,8.22,4.53q3.69,2.13,7.1,4.28h0a.81.81,0,0,0,1.11-.21h0c19.65-28.28,35.59-40,60.92-45h0a.8.8,0,0,0,.64-.75l1-20.32a.82.82,0,0,1,.57-.73A22.39,22.39,0,0,0,120,39.28,25.34,25.34,0,0,0,123.22,24ZM98.16,63.47a.81.81,0,0,1-.66.75c-13,2.43-25.51,9.2-37.08,20.13A115.55,115.55,0,0,0,42.63,106a.78.78,0,0,1-.9.33,20.1,20.1,0,0,1-7.67-4.36.8.8,0,0,1-.1-1c.42-.6.83-1.22,1.21-1.85,4.18-7,15.1-20.83,17.76-24.18a1,1,0,0,1,.25-.21,35.44,35.44,0,0,0,11.39-9.21,29.31,29.31,0,0,0,4.28-7.22.83.83,0,0,1,.7-.5c8.38-.6,14.84-3.62,19.25-9a.79.79,0,0,1,.87-.26A33.53,33.53,0,0,0,98,50.16a.8.8,0,0,1,.75.84ZM113,35.17A12.69,12.69,0,0,1,110.82,38a15,15,0,0,1-9.2,4.11,22.48,22.48,0,0,1-8.33-1,.79.79,0,0,1-.57-.83c.43-4.79-1.59-10.24-4.73-12.4h0a.8.8,0,0,0-1.26.67l0,3.24v0a19.64,19.64,0,0,1-1.41,6.83A17.88,17.88,0,0,1,84.19,41c-2.62,4.53-6.9,7.31-12.74,8.3a.81.81,0,0,1-.94-.69,15.16,15.16,0,0,0-4.28-8.81,7.72,7.72,0,0,0-5.4-2.42h0a.8.8,0,0,0-.72,1.11l1.22,3a18.11,18.11,0,0,1,1.41,7.41,19.35,19.35,0,0,1-4.46,11.47,27.61,27.61,0,0,1-11.09,8.15,28.9,28.9,0,0,1-11.72,2.18l-3.24-.08a.8.8,0,0,0-.73,1.17h0a12.1,12.1,0,0,0,7.88,5.45.8.8,0,0,1,.47,1.27c-4.14,5.44-9,12-11.57,16.33a15.35,15.35,0,0,1-7.66,6.71A8.82,8.82,0,0,1,13,101a8.15,8.15,0,0,1-1.69-1.35,11,11,0,0,1-2.81-6,10.65,10.65,0,0,1,.41-4.71.8.8,0,0,1,1.22-.41,12.72,12.72,0,0,0,9.72,2.31h0a.8.8,0,0,0,.43-1.38l-2.37-2.2c-.49-.44-11.72-10.94-9.66-24.86A20.72,20.72,0,0,1,19.54,46.46a.81.81,0,0,1,1,.23,9.44,9.44,0,0,0,7.05,4h0a.8.8,0,0,0,.75-1.11l-1.24-3a26.06,26.06,0,0,1-1.66-12.45,28.25,28.25,0,0,1,4.18-12.28C33.06,16.42,39.21,12,46.51,9.69S61.36,7.52,67.24,10a20.87,20.87,0,0,1,5.36,3.27q.83.71,1.53,1.44a15,15,0,0,1,2.5,3.33L78.08,21a.81.81,0,0,0,1.41.06h0a11,11,0,0,0,1.23-8.48.79.79,0,0,1,.41-.91A33.5,33.5,0,0,1,92.88,8.36a22.14,22.14,0,0,1,13.55,2.71,18.57,18.57,0,0,1,4,3.2,17.68,17.68,0,0,1,4.72,10.5c0,.17,0,.33,0,.5A17.08,17.08,0,0,1,113,35.17Z"/><path class="cls-3" d="M255.47,271.77c0,8.59-6.73,13.6-19.62,13.6H215a4.08,4.08,0,0,1-4.08-4.07v-42a4.08,4.08,0,0,1,4.08-4.07h19.4c12,0,18.47,5.08,18.47,13a12.34,12.34,0,0,1-2.56,7.8,4,4,0,0,0,.66,5.61A12.41,12.41,0,0,1,255.47,271.77Zm-35.22-25.13v5.66a4.08,4.08,0,0,0,4.07,4.08h9.1c6.44,0,10.1-2.29,10.1-6.88s-3.66-6.94-10.1-6.94h-9.1A4.08,4.08,0,0,0,220.25,246.64Zm25.84,24.2c0-5-3.79-7.23-10.81-7.23h-11a4.07,4.07,0,0,0-4.07,4.08V274a4.07,4.07,0,0,0,4.07,4.08h11C242.3,278.07,246.09,275.85,246.09,270.84Z"/><path class="cls-3" d="M261.84,260.32c0-14.82,11.46-25.78,27-25.78s27,10.88,27,25.78-11.46,25.77-27,25.77S261.84,275.14,261.84,260.32Zm44.61,0c0-10.24-7.52-17.62-17.61-17.62s-17.62,7.38-17.62,17.62,7.52,17.61,17.62,17.61S306.45,270.55,306.45,260.32Z"/><path class="cls-3" d="M354.27,283.67l-9-12.67a4.07,4.07,0,0,0-6.64,0l-8.93,12.63a4.09,4.09,0,0,1-3.33,1.72h-.47a4.07,4.07,0,0,1-3.3-6.47l12.16-16.7a4.08,4.08,0,0,0,0-4.78l-11.27-15.71a4.08,4.08,0,0,1,3.32-6.45h.49a4.09,4.09,0,0,1,3.31,1.69l8.27,11.5a4.08,4.08,0,0,0,6.63,0L353.63,237a4.08,4.08,0,0,1,3.32-1.71h0a4.07,4.07,0,0,1,3.3,6.47l-11.11,15.33a4.07,4.07,0,0,0,0,4.79l12.39,17a4.08,4.08,0,0,1-3.3,6.47h-.64A4.08,4.08,0,0,1,354.27,283.67Z"/><path class="cls-2" d="M403.21,32.86a13.82,13.82,0,1,1-13.78-13.74A13.48,13.48,0,0,1,403.21,32.86Zm-2.67,0a10.83,10.83,0,0,0-11.11-11.19,11,11,0,0,0-11.16,11.27,11,11,0,0,0,11.08,11.28A11.08,11.08,0,0,0,400.54,32.86Zm-6.77,2.59,3.33,5.09H393l-2.86-4.39h-2.7v4.39H383.4V25.35H390c4.15,0,6.62,2.11,6.62,5.4A4.84,4.84,0,0,1,393.77,35.45Zm-4-2.35c1.84,0,2.9-.86,2.9-2.35s-1.06-2.39-2.9-2.39h-2.31V33.1Z"/></g></g></svg>