<svg xmlns="http://www.w3.org/2000/svg" width="14.411" height="15" viewBox="0 0 14.411 15">
  <path id="Path_75" data-name="Path 75" d="M2396.864,945.09a3.8,3.8,0,0,1,.117-.532,4.7,4.7,0,0,1,1.164-1.956,6.061,6.061,0,0,1,1.715-1.239,5.8,5.8,0,0,1,1.229-.437,5.211,5.211,0,0,1,1.036-.134,1.858,1.858,0,0,1,.281,0c.134.009.269.02.4.033a4.655,4.655,0,0,1,.8.155,5.324,5.324,0,0,1,2.664,1.755,4.918,4.918,0,0,1,.755,1.286,4.491,4.491,0,0,1,.275,1.07h1.466c0-.118-.021-.234-.029-.35a4.319,4.319,0,0,0-.131-.762,5.589,5.589,0,0,0-.488-1.257,6.566,6.566,0,0,0-.772-1.138c-.085-.1-.178-.193-.269-.289a5.32,5.32,0,0,0-.408-.394,7.267,7.267,0,0,0-.773-.586,6.736,6.736,0,0,0-1.055-.573c-.11-.047-.219-.1-.326-.143a4.862,4.862,0,0,0,1.766-3.646.5.5,0,0,1,.009-.162.123.123,0,0,1-.012-.076,3.677,3.677,0,0,0-.042-.664,5.016,5.016,0,0,0-.186-.85,4.829,4.829,0,0,0-.827-1.573,4.138,4.138,0,0,0-.659-.669,4.072,4.072,0,0,0-1.206-.671,3.859,3.859,0,0,0-1.128-.2c-.088,0-.176.011-.264.011a2.226,2.226,0,0,0-.385.039,3.908,3.908,0,0,0-.915.277,3.96,3.96,0,0,0-1.241.878,4.68,4.68,0,0,0-1.027,1.646,5.282,5.282,0,0,0-.317,1.543,4.554,4.554,0,0,0,.007.627,5.7,5.7,0,0,0,.126.841,4.853,4.853,0,0,0,1.045,2.083,4.455,4.455,0,0,0,.506.494l-.063.024a7.362,7.362,0,0,0-1.409.7,6.786,6.786,0,0,0-1.44,1.241,6.272,6.272,0,0,0-.845,1.235,5.506,5.506,0,0,0-.609,2.04c-.009.106-.017.212-.021.318Zm2.745-7.958a3.917,3.917,0,0,1-.19-.756c-.016-.1-.016-.213-.03-.318a.134.134,0,0,1,.011-.043,1.842,1.842,0,0,1,0-.32,3.327,3.327,0,0,1,.313-1.295,3.086,3.086,0,0,1,.623-.9,2.676,2.676,0,0,1,.659-.492,2.442,2.442,0,0,1,.842-.277,2.506,2.506,0,0,1,.466-.028,2.613,2.613,0,0,1,1.546.607,3,3,0,0,1,.674.786,3.267,3.267,0,0,1,.41,1.068,3.117,3.117,0,0,1,.071.548.99.99,0,0,1,0,.352,3.552,3.552,0,0,1-.24,1.136,3.2,3.2,0,0,1-.715,1.1,2.673,2.673,0,0,1-1.193.709,2.427,2.427,0,0,1-.887.078,2.467,2.467,0,0,1-.905-.264,2.884,2.884,0,0,1-.949-.783A3.149,3.149,0,0,1,2399.609,937.132Z" transform="translate(-2394.857 -930.59)" fill="#d27b31" stroke="#d27b31" stroke-width="1"/>
</svg>
